<mxfile host="app.diagrams.net" modified="2024-02-01T06:05:12.916Z" agent="Mozilla/5.0 (Windows NT 10.0; Win64; x64) AppleWebKit/537.36 (KHTML, like Gecko) Chrome/120.0.0.0 Safari/537.36" version="23.1.0" etag="0XMpN6Sgv5IbvyjCUCMO" type="github">
  <diagram name="Page-1" id="mqc6v7bTama7JnDgG0-J">
    <mxGraphModel>
      <root>
        <mxCell id="0" />
        <mxCell id="1" parent="0" />
      </root>
    </mxGraphModel>
  </diagram>
</mxfile>
